<svg xmlns="http://www.w3.org/2000/svg" xmlns:xlink="http://www.w3.org/1999/xlink" version="1.1" width="30" height="30" viewBox="0 0 256 256" xml:space="preserve">

<defs>
</defs>
<g style="stroke: none; stroke-width: 0; stroke-dasharray: none; stroke-linecap: butt; stroke-linejoin: miter; stroke-miterlimit: 10; fill: none; fill-rule: nonzero; opacity: 1;" transform="translate(1.4065934065934016 1.4065934065934016) scale(2.81 2.81)" >
	<path d="M 54.844 8 c 7.254 0 14.073 2.825 19.202 7.954 S 82 27.902 82 35.156 s -2.825 14.073 -7.954 19.202 c -5.129 5.129 -11.948 7.954 -19.202 7.954 c -7.254 0 -14.073 -2.825 -19.202 -7.954 s -7.954 -11.948 -7.954 -19.202 s 2.825 -14.073 7.954 -19.202 C 40.771 10.825 47.591 8 54.844 8 M 54.844 0 C 45.847 0 36.85 3.432 29.985 10.297 c -13.729 13.729 -13.729 35.989 0 49.718 c 6.865 6.865 15.862 10.297 24.859 10.297 s 17.994 -3.432 24.859 -10.297 c 13.729 -13.729 13.729 -35.989 0 -49.718 C 72.839 3.432 63.841 0 54.844 0 L 54.844 0 z" style="stroke: none; stroke-width: 1; stroke-dasharray: none; stroke-linecap: butt; stroke-linejoin: miter; stroke-miterlimit: 10; fill: rgb(250,250,250); fill-rule: nonzero; opacity: 1;" transform=" matrix(1 0 0 1 0 0) " stroke-linecap="round" />
	<path d="M 4 90 c -1.024 0 -2.047 -0.391 -2.829 -1.172 c -1.562 -1.562 -1.562 -4.095 0 -5.656 L 29.86 54.482 c 1.563 -1.563 4.095 -1.563 5.657 0 c 1.562 1.562 1.562 4.095 0 5.656 L 6.829 88.828 C 6.047 89.609 5.024 90 4 90 z" style="stroke: none; stroke-width: 1; stroke-dasharray: none; stroke-linecap: butt; stroke-linejoin: miter; stroke-miterlimit: 10; fill: rgb(250,250,250); fill-rule: nonzero; opacity: 1;" transform=" matrix(1 0 0 1 0 0) " stroke-linecap="round" />
	<!--  -->
</g>
</svg>